# xmcd CD database file
#
# Track frame offsets:
#	150
#	11402
#	28552
#	49625
#	68834
#	93383
#	108295
#	127649
#	149853
#	163719
#
# Disc length: 2490 seconds
#
# Revision: 0
# Processed by: cddbd v1.4PL0 Copyright (c) Steve Scherf et al.
# Submitted via: CDex 1.40Beta8
#
DISCID=7c09b80a
DTITLE=Continental Singers - Continental Country
DYEAR=1982
DGENRE=Country
TTITLE0=God loves the country people
TTITLE1=Lead me on, lead me up
TTITLE2=The touch of the Master's hand
TTITLE3=I'll never let go of your hand
TTITLE4=The traveler
TTITLE5=Smack dab in the middle
TTITLE6=Sing me a good ol' gospel song
TTITLE7=Granda's song (heaven must be a happy place)
TTITLE8=Ol' branch
TTITLE9=Can't stop the music
EXTD=YEAR: 1982 ID3G: 2
EXTT0=
EXTT1=
EXTT2=
EXTT3=
EXTT4=
EXTT5=
EXTT6=
EXTT7=
EXTT8=
EXTT9=
PLAYORDER=
